<?xml version="1.0" standalone="no"?>
<!DOCTYPE svg PUBLIC "-//W3C//DTD SVG 20010904//EN"
 "http://www.w3.org/TR/2001/REC-SVG-20010904/DTD/svg10.dtd">
<svg version="1.0" xmlns="http://www.w3.org/2000/svg"
 width="576.000000pt" height="576.000000pt" viewBox="0 0 576.000000 576.000000"
 preserveAspectRatio="xMidYMid meet">

<g transform="translate(0.000000,576.000000) scale(0.100000,-0.100000)"
fill="#000000" stroke="none">
<path d="M560 4863 l0 -898 -280 -220 -280 -220 0 -1762 0 -1763 250 0 250 0
0 1638 0 1639 280 219 279 219 1 778 0 777 340 0 340 0 0 -505 c0 -278 2 -505
5 -505 2 0 257 198 565 441 309 242 567 439 574 437 7 -2 545 -421 1195 -932
l1181 -930 -2 -1385 -3 -1386 -1590 0 -1590 0 -3 903 -2 902 700 0 700 0 0
-615 0 -615 250 0 250 0 0 865 0 865 -1200 0 -1200 0 0 -1405 0 -1405 2095 0
2095 0 0 1763 0 1762 -1418 1115 c-1278 1005 -1421 1115 -1457 1118 -39 3 -50
-4 -335 -227 l-295 -231 -3 230 -2 230 -845 0 -845 0 0 -897z"/>
</g>
</svg>
